<?xml version="1.0" standalone="no"?>
<!DOCTYPE svg PUBLIC "-//W3C//DTD SVG 20010904//EN"
 "http://www.w3.org/TR/2001/REC-SVG-20010904/DTD/svg10.dtd">
<svg version="1.0" xmlns="http://www.w3.org/2000/svg"
 width="30.000000pt" height="30.000000pt" viewBox="0 0 459.000000 507.000000"
 preserveAspectRatio="xMidYMid meet">

<g transform="translate(0.000000,507.000000) scale(0.100000,-0.100000)"
fill="#000000" stroke="none">
<path d="M2021 4999 c-1109 -98 -1961 -1032 -1961 -2149 0 -793 445 -1536
1142 -1905 322 -170 630 -245 1001 -245 149 1 303 11 311 22 2 1 1 58 -2 126
l-4 122 -26 0 -26 0 26 28 25 27 -5 163 c-4 145 -12 189 -28 149 -3 -8 -36
-42 -74 -76 l-70 -62 0 395 0 396 76 0 77 0 -7 52 c-3 29 -6 86 -6 126 l0 72
-70 0 -70 0 0 240 0 240 371 0 371 0 -3 -112 -4 -111 121 -33 122 -32 6 37 c3
20 8 84 12 144 l7 107 370 0 370 0 -6 -77 c-7 -88 -27 -192 -58 -306 -12 -42
-20 -80 -17 -83 6 -5 224 -64 238 -64 11 0 66 228 86 355 23 153 23 450 0 610
-105 706 -533 1303 -1163 1623 -279 141 -567 214 -893 226 -74 2 -182 0 -239
-5z m574 -290 c141 -30 268 -75 420 -149 225 -109 434 -267 585 -442 l71 -82
-43 -23 c-118 -61 -497 -193 -558 -193 -13 0 -33 26 -66 88 -90 165 -196 334
-308 487 -68 94 -231 298 -250 314 -9 8 -16 18 -16 23 0 10 28 6 165 -23z
m-796 -96 c-205 -211 -368 -421 -487 -626 l-57 -99 -39 7 c-52 8 -464 144
-471 155 -9 15 244 262 340 333 126 93 282 179 426 236 127 51 310 102 388
110 8 0 -37 -52 -100 -116z m271 -479 l0 -387 -87 7 c-103 8 -345 42 -421 59
l-52 12 48 81 c63 104 136 205 238 329 86 104 255 285 267 285 4 0 7 -174 7
-386z m358 199 c151 -199 371 -549 354 -564 -10 -10 -248 -29 -357 -29 l-95 0
0 355 c0 195 2 355 4 355 2 0 44 -53 94 -117z m-1664 -563 c76 -28 191 -66
255 -85 64 -18 116 -37 116 -42 0 -4 -17 -57 -37 -118 -52 -153 -86 -300 -100
-432 l-12 -113 -334 0 -333 0 6 63 c23 215 92 454 191 655 58 118 69 133 88
129 11 -3 83 -28 160 -57z m3105 -50 c114 -220 176 -436 205 -712 l3 -28 -381
0 -381 0 -27 143 c-22 112 -86 342 -124 442 -4 8 13 17 48 25 139 33 404 131
533 198 33 17 63 31 67 32 3 0 29 -45 57 -100z m-2305 -165 c120 -22 246 -39
454 -61 l52 -5 0 -255 0 -254 -415 0 -415 0 6 43 c29 212 57 328 116 485 24
64 34 81 47 78 9 -3 78 -17 155 -31z m1374 -122 c52 -144 112 -377 112 -439 0
-12 -59 -14 -360 -14 l-360 0 0 249 0 248 148 8 c81 4 194 13 252 20 58 6 121
13 140 14 l36 1 32 -87z m-1939 -813 c16 -132 60 -311 111 -450 23 -61 40
-113 38 -115 -2 -2 -62 -25 -133 -50 -72 -26 -186 -72 -255 -102 -69 -30 -132
-57 -140 -59 -42 -14 -204 355 -255 579 -14 61 -44 254 -45 285 0 9 73 12 333
12 l334 0 12 -100z m1071 -145 l0 -245 -29 0 c-58 0 -279 -32 -426 -62 -228
-47 -211 -47 -230 -2 -60 140 -135 432 -135 526 l0 28 410 0 410 0 0 -245z m0
-871 c0 -280 -3 -373 -11 -368 -16 9 -185 186 -237 246 -126 148 -300 395
-285 408 16 15 409 83 516 89 16 1 17 -23 17 -375z m-740 124 c115 -192 293
-412 513 -632 70 -70 127 -130 125 -131 -2 -2 -58 7 -125 20 -382 74 -753 281
-1013 563 l-71 76 33 17 c73 37 444 177 473 178 6 0 35 -41 65 -91z"/>
<path d="M2574 2448 c4 -62 18 -392 31 -733 30 -758 47 -1149 49 -1152 0 -1
147 118 325 263 178 146 328 261 332 257 7 -7 115 -155 599 -812 85 -116 158
-211 162 -211 5 0 430 341 461 370 5 4 -17 43 -49 86 -32 44 -152 207 -268
364 -115 157 -248 337 -294 400 -47 63 -98 132 -114 153 -16 20 -27 41 -24 45
2 4 142 120 310 257 168 138 303 251 298 252 -4 2 -115 37 -247 79 -367 116
-411 130 -1002 318 -303 97 -556 176 -563 176 -9 0 -10 -28 -6 -112z"/>
</g>
</svg>
