<?xml version="1.0" encoding="UTF-8"?>
<svg xmlns="http://www.w3.org/2000/svg" xmlns:xlink="http://www.w3.org/1999/xlink" width="72px" height="72px" viewBox="0 0 72 72" version="1.1">
<defs>
<linearGradient id="linear0" gradientUnits="userSpaceOnUse" x1="-277.375" y1="406.6018" x2="-277.375" y2="407.5726" gradientTransform="matrix(72,0,0,-71.60004,20007.0018,29182.2012)">
<stop offset="0" style="stop-color:rgb(0%,38.431373%,87.843137%);stop-opacity:1;"/>
<stop offset="1" style="stop-color:rgb(9.803922%,68.627451%,100%);stop-opacity:1;"/>
</linearGradient>
</defs>
<g id="surface1">
<path style=" stroke:none;fill-rule:nonzero;fill:url(#linear0);" d="M 30.058594 71.640625 C 12.960938 68.578125 0 53.820312 0 36 C 0 16.199219 16.199219 0 36 0 C 55.800781 0 72 16.199219 72 36 C 72 53.820312 59.039062 68.578125 41.941406 71.640625 L 39.960938 70.019531 L 32.039062 70.019531 Z M 30.058594 71.640625 "/>
<path style=" stroke:none;fill-rule:nonzero;fill:rgb(100%,100%,100%);fill-opacity:1;" d="M 50.039062 46.078125 L 51.660156 36 L 42.121094 36 L 42.121094 28.980469 C 42.121094 26.101562 43.199219 23.941406 47.519531 23.941406 L 52.199219 23.941406 L 52.199219 14.761719 C 49.679688 14.398438 46.800781 14.039062 44.28125 14.039062 C 36 14.039062 30.238281 19.078125 30.238281 28.078125 L 30.238281 36 L 21.238281 36 L 21.238281 46.078125 L 30.238281 46.078125 L 30.238281 71.460938 C 32.21875 71.820312 34.199219 72 36.179688 72 C 38.160156 72 40.140625 71.820312 42.121094 71.460938 L 42.121094 46.078125 Z M 50.039062 46.078125 "/>
</g>
</svg>
