<?xml version="1.0" encoding="UTF-8"?>
<svg xmlns="http://www.w3.org/2000/svg" xmlns:xlink="http://www.w3.org/1999/xlink" width="72px" height="74px" viewBox="0 0 72 74" version="1.1">
<g id="surface1">
<path style=" stroke:none;fill-rule:nonzero;fill:rgb(0%,0%,0%);fill-opacity:1;" d="M 24.082031 57.4375 C 24.082031 57.726562 23.75 57.957031 23.328125 57.957031 C 22.847656 58 22.515625 57.769531 22.515625 57.4375 C 22.515625 57.148438 22.847656 56.917969 23.269531 56.917969 C 23.703125 56.871094 24.082031 57.105469 24.082031 57.4375 Z M 19.566406 56.785156 C 19.464844 57.074219 19.757812 57.40625 20.191406 57.496094 C 20.570312 57.640625 21.003906 57.496094 21.09375 57.207031 C 21.179688 56.917969 20.902344 56.582031 20.46875 56.453125 C 20.089844 56.351562 19.667969 56.496094 19.566406 56.785156 Z M 25.984375 56.539062 C 25.5625 56.640625 25.273438 56.917969 25.316406 57.25 C 25.359375 57.539062 25.738281 57.726562 26.171875 57.625 C 26.59375 57.523438 26.882812 57.25 26.839844 56.960938 C 26.796875 56.683594 26.40625 56.496094 25.984375 56.539062 Z M 35.535156 1.15625 C 15.402344 1.15625 0 16.375 0 36.421875 C 0 52.449219 10.132812 66.167969 24.605469 70.992188 C 26.464844 71.328125 27.117188 70.183594 27.117188 69.246094 C 27.117188 68.347656 27.074219 63.40625 27.074219 60.371094 C 27.074219 60.371094 16.910156 62.539062 14.777344 56.0625 C 14.777344 56.0625 13.121094 51.859375 10.742188 50.773438 C 10.742188 50.773438 7.417969 48.503906 10.972656 48.546875 C 10.972656 48.546875 14.589844 48.835938 16.578125 52.277344 C 19.757812 57.855469 25.082031 56.25 27.160156 55.296875 C 27.492188 52.984375 28.4375 51.378906 29.480469 50.425781 C 21.367188 49.53125 13.179688 48.359375 13.179688 34.457031 C 13.179688 30.480469 14.285156 28.488281 16.605469 25.941406 C 16.230469 25.003906 14.996094 21.128906 16.984375 16.128906 C 20.019531 15.191406 27 20.03125 27 20.03125 C 29.902344 19.222656 33.023438 18.804688 36.117188 18.804688 C 39.207031 18.804688 42.328125 19.222656 45.230469 20.03125 C 45.230469 20.03125 52.214844 15.175781 55.25 16.128906 C 57.238281 21.144531 56.003906 25.003906 55.625 25.941406 C 57.949219 28.5 59.371094 30.496094 59.371094 34.457031 C 59.371094 48.402344 50.820312 49.515625 42.707031 50.425781 C 44.042969 51.570312 45.175781 53.738281 45.175781 57.132812 C 45.175781 62.003906 45.128906 68.03125 45.128906 69.214844 C 45.128906 70.15625 45.796875 71.296875 47.640625 70.964844 C 62.15625 66.167969 72 52.449219 72 36.421875 C 72 16.375 55.667969 1.15625 35.535156 1.15625 Z M 14.109375 51.003906 C 13.921875 51.148438 13.964844 51.480469 14.210938 51.757812 C 14.445312 51.988281 14.777344 52.089844 14.964844 51.902344 C 15.15625 51.757812 15.109375 51.425781 14.863281 51.148438 C 14.632812 50.917969 14.296875 50.816406 14.109375 51.003906 Z M 12.542969 49.835938 C 12.441406 50.023438 12.585938 50.253906 12.875 50.398438 C 13.109375 50.542969 13.398438 50.5 13.5 50.296875 C 13.601562 50.109375 13.457031 49.878906 13.167969 49.734375 C 12.875 49.644531 12.644531 49.691406 12.542969 49.835938 Z M 17.246094 54.980469 C 17.011719 55.167969 17.101562 55.601562 17.433594 55.875 C 17.769531 56.207031 18.1875 56.25 18.378906 56.019531 C 18.566406 55.832031 18.480469 55.398438 18.1875 55.125 C 17.871094 54.792969 17.433594 54.75 17.246094 54.980469 Z M 15.589844 52.855469 C 15.359375 53 15.359375 53.375 15.589844 53.707031 C 15.824219 54.039062 16.214844 54.183594 16.402344 54.039062 C 16.636719 53.851562 16.636719 53.476562 16.402344 53.144531 C 16.199219 52.8125 15.824219 52.667969 15.589844 52.855469 Z M 15.589844 52.855469 "/>
</g>
</svg>
